<?xml version="1.0" standalone="no"?>
<!DOCTYPE svg PUBLIC "-//W3C//DTD SVG 20010904//EN"
 "http://www.w3.org/TR/2001/REC-SVG-20010904/DTD/svg10.dtd">
<svg version="1.0" xmlns="http://www.w3.org/2000/svg"
 width="260.000000pt" height="260.000000pt" viewBox="0 0 260.000000 260.000000"
 preserveAspectRatio="xMidYMid meet">
<metadata>
Created by potrace 1.11, written by Peter Selinger 2001-2013
</metadata>
<g transform="translate(0.000000,260.000000) scale(0.100000,-0.100000)"
fill="#000000" stroke="none">
<path d="M1255 1268 l0 -633 25 0 25 0 0 633 0 632 -25 0 -26 0 1 -632z"/>
<path d="M630 1725 c-70 -18 -112 -42 -162 -90 -85 -85 -130 -201 -130 -343 0
-178 55 -305 166 -380 128 -85 284 -83 430 7 34 22 35 22 45 2 6 -11 11 -27
11 -35 0 -21 28 -21 32 0 2 9 2 75 0 145 -3 104 -6 129 -18 129 -8 0 -14 -3
-15 -7 -1 -8 -3 -20 -14 -83 -9 -47 -38 -100 -72 -132 -40 -39 -100 -57 -180
-55 -57 2 -77 7 -111 30 -98 65 -147 186 -147 367 0 136 5 173 37 253 48 122
135 185 240 173 93 -10 112 -18 164 -71 44 -44 54 -60 64 -111 17 -83 18 -84
35 -84 12 0 15 18 16 110 1 61 1 122 2 137 2 44 -29 42 -37 -1 -4 -20 -12 -36
-19 -36 -7 0 -32 14 -57 30 -77 51 -187 69 -280 45z"/>
<path d="M1525 1712 c-10 -10 7 -22 31 -22 13 0 33 -9 44 -20 19 -19 20 -33
20 -374 0 -327 -1 -356 -18 -376 -11 -13 -29 -23 -45 -22 -29 0 -44 -13 -27
-23 17 -11 413 -8 455 4 58 15 129 63 154 105 45 72 38 183 -16 247 -37 43
-141 90 -178 80 -19 -5 6 13 53 39 26 14 60 44 77 68 26 37 30 53 30 106 0 78
-28 123 -100 163 -50 28 -50 28 -262 29 -117 0 -215 -1 -218 -4z m396 -45 c48
-32 64 -70 64 -152 0 -80 -23 -136 -68 -169 -21 -16 -43 -20 -105 -21 l-77 0
1 164 c2 158 3 166 24 183 33 27 118 24 161 -5z m31 -391 c65 -28 102 -108 93
-200 -13 -118 -84 -176 -218 -176 -65 0 -86 16 -88 63 -6 155 -3 323 6 329 17
12 168 0 207 -16z"/>
</g>
</svg>
